<svg width="186" height="185" xmlns="http://www.w3.org/2000/svg" xmlns:xlink="http://www.w3.org/1999/xlink" overflow="hidden"><defs><clipPath id="clip0"><rect x="499" y="122" width="186" height="185"/></clipPath></defs><g clip-path="url(#clip0)" transform="translate(-499 -122)"><path d="M49.862 131.603 51.4968 112.19 39.0313 107.898 48.0229 92.3674 22.4788 86.4411 46.1837 74.18 34.5356 50.6794 59.4666 52.9273 57.0144 43.3227 67.6407 45.9793 71.7278 34.3312 64.7798 43.1184 54.5621 39.6444 55.9926 48.6359 20.6396 44.5489 39.6444 70.2973 12.0568 85.6237 39.2357 92.5717 33.1051 108.92 46.388 112.19" fill="#D62EA7" fill-rule="evenodd" transform="matrix(1 0 0 1.00779 490.929 98.8297)"/><path d="M35.3179 67.9305 16.5318 63.5722 33.9653 54.5548 25.3988 37.2716 43.734 38.9248 41.9306 31.8612 49.7456 33.815 52.7514 25.2485 47.6415 31.7109 40.1271 29.156 41.1791 35.7687 15.1792 32.763 29.156 51.6993 8.86704 62.971 28.8554 68.0808 26.5359 79.3616" fill="#D62EA7" fill-rule="evenodd" transform="matrix(-0.999737 0.0229494 -0.0244741 -1.08283 697.64 269.298)"/><path d="M5.72147 5.32688 205.578 5.32688 205.578 205.184 5.72147 205.184Z" stroke="#D62EA7" stroke-width="6.047" stroke-linecap="round" stroke-miterlimit="1.5" fill="none" fill-rule="evenodd" transform="matrix(1 0 0 1.00779 487.046 110.349)"/><path d="M94.2409 138.923C79.1496 131.126 68.8232 115.374 68.8232 97.2295 68.8232 71.3453 89.8379 50.3306 115.722 50.3306 141.606 50.3306 162.621 71.3453 162.621 97.2295 162.621 114.312 153.468 129.273 139.803 137.474 132.763 141.698 114.303 145.382 114.303 145.382 114.303 145.382 99.9264 141.861 94.2409 138.923Z" stroke="#D62EA7" stroke-width="6.04729" stroke-linecap="round" stroke-miterlimit="1.5" fill="#D62EA7" fill-rule="evenodd" transform="matrix(1 0 0 1.00779 481.663 99.9775)"/><path d="M124.539 115.158C124.539 124.733 120.325 132.133 113.996 136.176 112.306 137.255 109.243 135.112 107.292 135.691 105.23 136.302 104.267 139.604 102.005 139.604 89.5857 139.604 79.1348 131.453 79.1348 116.619" stroke="#D62EA7" stroke-width="6.06025" stroke-linecap="round" stroke-miterlimit="1.5" fill="#D62EA7" fill-rule="evenodd" transform="matrix(1.00348 0 0 1 496.494 123.364)"/><path d="M110.963 149.126 106.672 120.772 93.5583 101.155 104.833 132.277 107.432 146.839 110.963 149.126Z" fill="#FFFFFF" fill-rule="evenodd" transform="matrix(1 0 0 1.1119 482.346 89.5341)"/><path d="M96.0458 93.1848 100.973 101.609 107.694 105.855 118.525 89.5065 107.49 83.7846C107.49 83.7846 107.307 91.9485 109.533 96.6588 111.759 101.369 115.664 106.059 115.664 106.059L129.151 87.8717 124.042 81.7411C124.042 81.7411 120.57 88.8898 122.407 95.024 124.244 101.158 126.699 104.629 126.699 104.629 126.699 104.629 131.274 102.479 133.238 100.133 135.202 97.7869 135.486 94.411 135.486 94.411L132.855 98.0486 128.742 99.9285C128.742 99.9285 125.091 97.3532 124.246 92.7761 123.402 88.199 124.246 84.8064 124.246 84.8064L126.903 88.4847 116.34 101.155 109.329 86.2368 115.051 89.9152 108.716 101.972 102.188 99.7274 96.0458 93.1848Z" fill="#FFFFFF" transform="matrix(-0.999971 -0.00757741 0.00751884 -1.00776 713.695 294.868)"/><path d="M120.261 149.057 121.058 142.228 129.764 112.803 142.025 99.2099 130.417 122.167 120.261 149.057Z" fill="#FFFFFF" fill-rule="evenodd" transform="matrix(1 0 0 1.12377 482.346 87.8419)"/><path d="M121.59 189.384C121.59 191.443 119.989 193.113 118.014 193.113 116.039 193.113 114.437 191.443 114.437 189.384 114.437 187.324 116.039 185.654 118.014 185.654 119.989 185.654 121.59 187.324 121.59 189.384Z" stroke="#D62EA7" stroke-width="3.09594" stroke-linecap="square" stroke-miterlimit="1.5" fill="#D62EA7" fill-rule="evenodd" transform="matrix(1 0 0 1.00779 481.324 105.214)"/><path d="M75.9403 136.448 78.6906 141.185 95.4983 141.185 98.2311 136.448 75.9403 136.448Z" stroke="#D62EA7" stroke-width="3.96662" stroke-linecap="square" stroke-miterlimit="1.5" fill="none" fill-rule="evenodd" transform="matrix(1.29157 0 0 1 486.849 152.674)"/><path d="M91.2365 163.669 120.511 163.852C120.511 163.852 124.516 157.204 125.044 151.417 125.573 145.629 123.803 136.604 123.803 136.604L86.8634 136.604C86.8634 136.604 85.3501 146.134 85.949 151.051 86.7522 157.643 91.2365 163.669 91.2365 163.669Z" stroke="#D62EA7" stroke-width="5.70189" stroke-linecap="square" stroke-miterlimit="1.5" fill="none" fill-rule="evenodd" transform="matrix(1 0 0 1.12618 493.21 104.596)"/><path d="M122.889 139.713 99.2985 147.576 126.131 145.748 123.061 147.963 98.7499 155.988 126.467 151.922 121.742 155.32 97.4698 163.303 90.3379 163.486 84.486 152.697 86.8634 138.25 122.889 139.713Z" fill="#D62EA7" fill-rule="evenodd" transform="matrix(1 0 0 1.12618 493.906 103.36)"/></g></svg>