<svg width="49" height="49" xmlns="http://www.w3.org/2000/svg" xmlns:xlink="http://www.w3.org/1999/xlink" overflow="hidden"><defs><clipPath id="clip0"><rect x="1415" y="2010" width="49" height="49"/></clipPath></defs><g clip-path="url(#clip0)" transform="translate(-1415 -2010)"><path d="M1464 2051.21 1446.31 2033.55 1461.9 2027.94C1462.7 2027.66 1463.12 2026.79 1462.85 2025.99 1462.7 2025.55 1462.35 2025.19 1461.9 2025.04L1416.99 2010.08C1416.83 2010.03 1416.66 2010 1416.49 2010L1416.49 2010C1415.65 2010.02 1414.98 2010.71 1415 2011.55 1415 2011.71 1415.03 2011.86 1415.08 2012.01L1430.02 2056.94C1430.3 2057.73 1431.18 2058.15 1431.97 2057.87 1432.41 2057.71 1432.75 2057.37 1432.91 2056.94L1438.53 2041.34 1456.2 2059Z" fill="#0CEEDB" fill-rule="evenodd"/></g></svg>